<svg width="0" height="0" class="hidden">
  <symbol fill="none" xmlns="http://www.w3.org/2000/svg" viewBox="0 0 360 64" id="Header">
    <path d="M25.918 23.0273V38.2031H28.918V42H20.9844V23.0273H25.918ZM36.5586 23.0273V38.2031H39.5586V42H31.625V23.0273H36.5586ZM53.1641 34.1367C53.1641 36.043 53.1172 37.3945 53.0234 38.1914C52.9375 38.9805 52.6562 39.7031 52.1797 40.3594C51.7109 41.0156 51.0742 41.5195 50.2695 41.8711C49.4648 42.2227 48.5273 42.3984 47.457 42.3984C46.4414 42.3984 45.5273 42.2344 44.7148 41.9062C43.9102 41.5703 43.2617 41.0703 42.7695 40.4062C42.2773 39.7422 41.9844 39.0195 41.8906 38.2383C41.7969 37.457 41.75 36.0898 41.75 34.1367V30.8906C41.75 28.9844 41.793 27.6367 41.8789 26.8477C41.9727 26.0508 42.2539 25.3242 42.7227 24.668C43.1992 24.0117 43.8398 23.5078 44.6445 23.1562C45.4492 22.8047 46.3867 22.6289 47.457 22.6289C48.4727 22.6289 49.3828 22.7969 50.1875 23.1328C51 23.4609 51.6523 23.957 52.1445 24.6211C52.6367 25.2852 52.9297 26.0078 53.0234 26.7891C53.1172 27.5703 53.1641 28.9375 53.1641 30.8906V34.1367ZM48.2305 27.9023C48.2305 27.0195 48.1797 26.457 48.0781 26.2148C47.9844 25.9648 47.7852 25.8398 47.4805 25.8398C47.2227 25.8398 47.0234 25.9414 46.8828 26.1445C46.75 26.3398 46.6836 26.9258 46.6836 27.9023V36.7617C46.6836 37.8633 46.7266 38.543 46.8125 38.8008C46.9062 39.0586 47.1172 39.1875 47.4453 39.1875C47.7812 39.1875 47.9961 39.0391 48.0898 38.7422C48.1836 38.4453 48.2305 37.7383 48.2305 36.6211V27.9023ZM67.0273 23.0273L63.4297 35.1328V42H58.8594V35.1328L55.3906 23.0273H59.9258C60.6367 26.7227 61.0352 29.2109 61.1211 30.4922C61.3945 28.4688 61.8516 25.9805 62.4922 23.0273H67.0273ZM69.3828 23.0273H73.0742C75.457 23.0273 77.0664 23.1367 77.9023 23.3555C78.7461 23.5742 79.3867 23.9336 79.8242 24.4336C80.2617 24.9336 80.5352 25.4922 80.6445 26.1094C80.7539 26.7188 80.8086 27.9219 80.8086 29.7188V36.3633C80.8086 38.0664 80.7266 39.207 80.5625 39.7852C80.4062 40.3555 80.1289 40.8047 79.7305 41.1328C79.332 41.4531 78.8398 41.6797 78.2539 41.8125C77.668 41.9375 76.7852 42 75.6055 42H69.3828V23.0273ZM74.3164 26.2734V38.7539C75.0273 38.7539 75.4648 38.6133 75.6289 38.332C75.793 38.043 75.875 37.2656 75.875 36V28.6289C75.875 27.7695 75.8477 27.2188 75.793 26.9766C75.7383 26.7344 75.6133 26.5586 75.418 26.4492C75.2227 26.332 74.8555 26.2734 74.3164 26.2734Z" fill="#292929"></path>
    <path d="M90.1836 23.0273V35.707C90.1836 37.6055 90.1641 38.8281 90.125 39.375C90.0859 39.9141 89.9062 40.4023 89.5859 40.8398C89.2734 41.2773 88.8438 41.582 88.2969 41.7539C87.7578 41.918 86.9414 42 85.8477 42H83.375V38.6836C83.6719 38.707 83.8867 38.7188 84.0195 38.7188C84.3711 38.7188 84.6484 38.6328 84.8516 38.4609C85.0547 38.2891 85.1719 38.0781 85.2031 37.8281C85.2344 37.5781 85.25 37.0938 85.25 36.375V23.0273H90.1836ZM93.5938 23.0273H101.82V26.8242H98.5273V30.4219H101.609V34.0312H98.5273V38.2031H102.148V42H93.5938V23.0273ZM105.078 23.0273H113.434V26.8242H110.012V30.4219H113.059V34.0312H110.012V42H105.078V23.0273ZM116.141 23.0273H124.496V26.8242H121.074V30.4219H124.121V34.0312H121.074V42H116.141V23.0273ZM127.203 23.0273H135.43V26.8242H132.137V30.4219H135.219V34.0312H132.137V38.2031H135.758V42H127.203V23.0273ZM138.688 23.0273H142.18C144.508 23.0273 146.082 23.1172 146.902 23.2969C147.73 23.4766 148.402 23.9375 148.918 24.6797C149.441 25.4141 149.703 26.5898 149.703 28.207C149.703 29.6836 149.52 30.6758 149.152 31.1836C148.785 31.6914 148.062 31.9961 146.984 32.0977C147.961 32.3398 148.617 32.6641 148.953 33.0703C149.289 33.4766 149.496 33.8516 149.574 34.1953C149.66 34.5312 149.703 35.4648 149.703 36.9961V42H145.121V35.6953C145.121 34.6797 145.039 34.0508 144.875 33.8086C144.719 33.5664 144.301 33.4453 143.621 33.4453V42H138.688V23.0273ZM143.621 26.2734V30.4922C144.176 30.4922 144.562 30.418 144.781 30.2695C145.008 30.1133 145.121 29.6172 145.121 28.7812V27.7383C145.121 27.1367 145.012 26.7422 144.793 26.5547C144.582 26.3672 144.191 26.2734 143.621 26.2734ZM163.578 28.7695H158.996V27.3633C158.996 26.707 158.938 26.2891 158.82 26.1094C158.703 25.9297 158.508 25.8398 158.234 25.8398C157.938 25.8398 157.711 25.9609 157.555 26.2031C157.406 26.4453 157.332 26.8125 157.332 27.3047C157.332 27.9375 157.418 28.4141 157.59 28.7344C157.754 29.0547 158.219 29.4414 158.984 29.8945C161.18 31.1992 162.562 32.2695 163.133 33.1055C163.703 33.9414 163.988 35.2891 163.988 37.1484C163.988 38.5 163.828 39.4961 163.508 40.1367C163.195 40.7773 162.586 41.3164 161.68 41.7539C160.773 42.1836 159.719 42.3984 158.516 42.3984C157.195 42.3984 156.066 42.1484 155.129 41.6484C154.199 41.1484 153.59 40.5117 153.301 39.7383C153.012 38.9648 152.867 37.8672 152.867 36.4453V35.2031H157.449V37.5117C157.449 38.2227 157.512 38.6797 157.637 38.8828C157.77 39.0859 158 39.1875 158.328 39.1875C158.656 39.1875 158.898 39.0586 159.055 38.8008C159.219 38.543 159.301 38.1602 159.301 37.6523C159.301 36.5352 159.148 35.8047 158.844 35.4609C158.531 35.1172 157.762 34.543 156.535 33.7383C155.309 32.9258 154.496 32.3359 154.098 31.9688C153.699 31.6016 153.367 31.0938 153.102 30.4453C152.844 29.7969 152.715 28.9688 152.715 27.9609C152.715 26.5078 152.898 25.4453 153.266 24.7734C153.641 24.1016 154.242 23.5781 155.07 23.2031C155.898 22.8203 156.898 22.6289 158.07 22.6289C159.352 22.6289 160.441 22.8359 161.34 23.25C162.246 23.6641 162.844 24.1875 163.133 24.8203C163.43 25.4453 163.578 26.5117 163.578 28.0195V28.7695ZM178.32 34.1367C178.32 36.043 178.273 37.3945 178.18 38.1914C178.094 38.9805 177.812 39.7031 177.336 40.3594C176.867 41.0156 176.23 41.5195 175.426 41.8711C174.621 42.2227 173.684 42.3984 172.613 42.3984C171.598 42.3984 170.684 42.2344 169.871 41.9062C169.066 41.5703 168.418 41.0703 167.926 40.4062C167.434 39.7422 167.141 39.0195 167.047 38.2383C166.953 37.457 166.906 36.0898 166.906 34.1367V30.8906C166.906 28.9844 166.949 27.6367 167.035 26.8477C167.129 26.0508 167.41 25.3242 167.879 24.668C168.355 24.0117 168.996 23.5078 169.801 23.1562C170.605 22.8047 171.543 22.6289 172.613 22.6289C173.629 22.6289 174.539 22.7969 175.344 23.1328C176.156 23.4609 176.809 23.957 177.301 24.6211C177.793 25.2852 178.086 26.0078 178.18 26.7891C178.273 27.5703 178.32 28.9375 178.32 30.8906V34.1367ZM173.387 27.9023C173.387 27.0195 173.336 26.457 173.234 26.2148C173.141 25.9648 172.941 25.8398 172.637 25.8398C172.379 25.8398 172.18 25.9414 172.039 26.1445C171.906 26.3398 171.84 26.9258 171.84 27.9023V36.7617C171.84 37.8633 171.883 38.543 171.969 38.8008C172.062 39.0586 172.273 39.1875 172.602 39.1875C172.938 39.1875 173.152 39.0391 173.246 38.7422C173.34 38.4453 173.387 37.7383 173.387 36.6211V27.9023ZM192.688 23.0273V42H188.363L185.797 33.375V42H181.672V23.0273H185.797L188.562 31.5703V23.0273H192.688ZM199.191 38.1328V42H195.617V38.1328H199.191Z" fill="#00B068"></path>
    <path d="M313.334 39.027V37.6936H334.667V39.027H313.334ZM313.334 32.667V31.3336H334.667V32.667H313.334ZM313.334 26.307V24.9736H334.667V26.307H313.334Z" fill="#292929"></path>
  </symbol>
  <symbol fill="none" xmlns="http://www.w3.org/2000/svg" viewBox="0 0 22 16" id="Vector">
    <path d="M0.333984 15.027V13.6936H21.6673V15.027H0.333984ZM0.333984 8.66697V7.33363H21.6673V8.66697H0.333984ZM0.333984 2.30697V0.973633H21.6673V2.30697H0.333984Z" fill="#292929"></path>
  </symbol>
  <symbol fill="none" xmlns="http://www.w3.org/2000/svg" viewBox="0 0 32 32" id="x">
    <path d="M24 8L8 24" stroke="#292929" stroke-width="2" stroke-linecap="round" stroke-linejoin="round"></path>
    <path d="M8 8L24 24" stroke="#292929" stroke-width="2" stroke-linecap="round" stroke-linejoin="round"></path>
  </symbol>
</svg>

<svg class="icon">
  <use xlink:href="#Header"></use>
</svg><svg class="icon">
  <use xlink:href="#Vector"></use>
</svg><svg class="icon">
  <use xlink:href="#x"></use>
</svg>